# This file uses centimeters as units for non-parametric coordinates.

mtllib dirLight.mtl
g default
v 0.044444 0.000000 -0.433333
v 0.000000 0.044444 -0.433333
v 0.038490 0.022222 -0.433333
v 0.044444 -0.000000 0.500000
v 0.038490 0.022222 0.500000
v 0.022222 0.038490 -0.433333
v 0.022222 0.038490 0.500000
v 0.000000 0.044444 0.500000
v 0.177778 0.000000 -0.344444
v 0.153960 0.088889 -0.344444
v 0.088889 0.000000 -0.522222
v 0.076980 0.044444 -0.522222
v 0.000000 0.177778 -0.344444
v 0.088889 0.153960 -0.344444
v 0.044444 0.076980 -0.522222
v 0.000000 0.088889 -0.522222
v -0.044444 0.000000 -0.433333
v -0.022222 0.038490 -0.433333
v -0.022222 0.038490 0.500000
v -0.038490 0.022222 -0.433333
v -0.038490 0.022222 0.500000
v -0.044444 0.000000 0.500000
v -0.088889 0.153960 -0.344444
v -0.044444 0.076980 -0.522222
v -0.177778 0.000000 -0.344444
v -0.153960 0.088889 -0.344444
v -0.076980 0.044444 -0.522222
v -0.088889 0.000000 -0.522222
v -0.000000 -0.044444 -0.433333
v -0.038490 -0.022222 -0.433333
v -0.038490 -0.022222 0.500000
v -0.022222 -0.038490 -0.433333
v -0.022222 -0.038490 0.500000
v -0.000000 -0.044444 0.500000
v -0.153960 -0.088889 -0.344444
v -0.076980 -0.044444 -0.522222
v -0.000000 -0.177778 -0.344444
v -0.088889 -0.153960 -0.344444
v -0.044444 -0.076980 -0.522222
v -0.000000 -0.088889 -0.522222
v 0.022222 -0.038490 -0.433333
v 0.022222 -0.038490 0.500000
v 0.000000 0.000000 0.500000
v 0.038490 -0.022222 -0.433333
v 0.038490 -0.022222 0.500000
v 0.088889 -0.153960 -0.344444
v 0.044444 -0.076980 -0.522222
v 0.153960 -0.088889 -0.344444
v 0.000000 0.000000 -0.788889
v 0.076980 -0.044444 -0.522222
vt 0.400000 0.000000
vt 0.400000 0.250000
vt 0.400000 0.083333
vt 0.200000 0.000000
vt 0.200000 0.083333
vt 0.400000 0.166667
vt 0.200000 0.166667
vt 0.200000 0.250000
vt 0.600000 0.000000
vt 0.600000 0.083333
vt 0.800000 1.000000
vt 0.800000 0.083333
vt 0.600000 0.250000
vt 0.600000 0.166667
vt 0.800000 0.166667
vt 0.800000 0.250000
vt 0.400000 0.500000
vt 0.400000 0.333333
vt 0.200000 0.333333
vt 0.400000 0.416667
vt 0.200000 0.416667
vt 0.200000 0.500000
vt 0.600000 0.333333
vt 0.800000 0.333333
vt 0.600000 0.500000
vt 0.600000 0.416667
vt 0.800000 0.416667
vt 0.800000 0.500000
vt 0.400000 0.750000
vt 0.400000 0.583333
vt 0.200000 0.583333
vt 0.400000 0.666667
vt 0.200000 0.666667
vt 0.200000 0.750000
vt 0.600000 0.583333
vt 0.800000 0.583333
vt 0.600000 0.750000
vt 0.600000 0.666667
vt 0.800000 0.666667
vt 0.800000 0.750000
vt 0.400000 0.833333
vt 0.200000 0.833333
vt 0.000000 0.000000
vt 0.400000 0.916667
vt 0.200000 0.916667
vt 0.600000 0.833333
vt 0.800000 0.833333
vt 0.600000 0.916667
vt 1.000000 1.000000
vt 0.800000 0.916667
vt 1.000000 0.500000
vt 1.000000 0.250000
vt 0.000000 0.083333
vt 0.000000 0.166667
vt 0.800000 0.000000
vt 1.000000 0.083333
vt 1.000000 0.166667
vt 0.000000 0.250000
vt 0.000000 0.333333
vt 0.000000 0.416667
vt 1.000000 0.333333
vt 1.000000 0.416667
vt 1.000000 0.750000
vt 0.000000 0.500000
vt 0.000000 0.583333
vt 0.000000 0.666667
vt 1.000000 0.583333
vt 1.000000 0.666667
vt 0.400000 1.000000
vt 0.000000 0.750000
vt 0.000000 0.833333
vt 0.200000 1.000000
vt 0.000000 0.916667
vt 1.000000 0.833333
vt 0.600000 1.000000
vt 1.000000 0.916667
vn -0.000000 0.000000 -1.000000
vn 0.917241 -0.048058 -0.395423
vn 0.770325 -0.500240 -0.395423
vn -0.917241 0.048058 -0.395423
vn -0.770325 0.500240 -0.395423
vn 0.048058 0.917241 -0.395423
vn 0.500240 0.770325 -0.395423
vn 0.349325 0.314939 0.882488
vn 0.145055 0.447408 0.882488
vn 0.346909 0.747484 0.566499
vn 0.820795 0.073310 0.566499
vn 0.447408 -0.145056 0.882488
vn 0.459994 0.098082 0.882488
vn 0.000000 -0.000000 1.000000
vn 0.674174 0.473886 0.566499
vn -0.073310 0.820795 0.566499
vn 0.818383 0.417001 -0.395423
vn 0.618230 0.243911 0.747194
vn 0.413449 0.520345 0.747195
vn 0.097883 0.657358 0.747195
vn -0.243909 0.618230 0.747195
vn -0.747484 0.346909 0.566499
vn -0.314939 0.349324 0.882488
vn -0.447408 0.145056 0.882488
vn -0.098083 0.459994 0.882488
vn -0.473886 0.674174 0.566499
vn -0.820795 -0.073310 0.566499
vn -0.417001 0.818383 -0.395423
vn -0.520347 0.413448 0.747195
vn -0.657358 0.097883 0.747195
vn -0.618230 -0.243911 0.747194
vn -0.048058 -0.917241 -0.395423
vn -0.500240 -0.770325 -0.395423
vn -0.346909 -0.747484 0.566499
vn -0.349325 -0.314939 0.882488
vn -0.145055 -0.447408 0.882488
vn -0.459994 -0.098082 0.882488
vn -0.674174 -0.473886 0.566499
vn 0.073310 -0.820795 0.566499
vn -0.818383 -0.417001 -0.395423
vn -0.413449 -0.520345 0.747195
vn -0.097883 -0.657358 0.747194
vn 0.243909 -0.618230 0.747195
vn 0.747484 -0.346909 0.566499
vn 0.314939 -0.349325 0.882488
vn 0.098083 -0.459994 0.882488
vn 0.473886 -0.674174 0.566499
vn 0.417001 -0.818383 -0.395423
vn 0.520347 -0.413448 0.747195
vn 0.657358 -0.097883 0.747195
s 1
g nurbsToPoly1
usemtl initialShadingGroup
f 49/49/1 11/11/2 50/50/3
f 49/51/1 28/28/4 27/27/5
f 49/52/1 16/16/6 15/15/7
f 6/6/8 2/2/9 7/7/10
f 4/4/11 1/1/12 3/3/13
f 43/43/14 4/4/11 5/5/15
f 3/3/13 6/6/8 5/5/15
f 7/7/10 43/53/14 5/5/15
f 8/8/16 43/54/14 7/7/10
f 11/55/2 49/56/1 12/12/17
f 1/1/12 9/9/18 10/10/19
f 9/9/18 11/55/2 12/12/17
f 6/6/8 14/14/20 13/13/21
f 3/3/13 10/10/19 14/14/20
f 49/57/1 15/15/7 12/12/17
f 10/10/19 12/12/17 15/15/7
f 14/14/20 15/15/7 16/16/6
f 21/21/22 20/20/23 17/17/24
f 8/8/16 2/2/9 18/18/25
f 43/58/14 8/8/16 19/19/26
f 19/19/26 18/18/25 20/20/23
f 43/59/14 19/19/26 21/21/22
f 22/22/27 43/60/14 21/21/22
f 49/61/1 24/24/28 16/16/6
f 2/2/9 13/13/21 23/23/29
f 13/13/21 16/16/6 24/24/28
f 20/20/23 26/26/30 25/25/31
f 18/18/25 23/23/29 26/26/30
f 49/62/1 27/27/5 24/24/28
f 23/23/29 24/24/28 27/27/5
f 26/26/30 27/27/5 28/28/4
f 49/63/1 40/40/32 39/39/33
f 33/33/34 32/32/35 29/29/36
f 22/22/27 17/17/24 30/30/37
f 43/64/14 22/22/27 31/31/38
f 31/31/38 30/30/37 32/32/35
f 43/65/14 31/31/38 33/33/34
f 34/34/39 43/66/14 33/33/34
f 49/67/1 36/36/40 28/28/4
f 17/17/24 25/25/31 35/35/41
f 25/25/31 28/28/4 36/36/40
f 32/32/35 38/38/42 37/37/43
f 30/30/37 35/35/41 38/38/42
f 49/68/1 39/39/33 36/36/40
f 35/35/41 36/36/40 39/39/33
f 38/38/42 39/39/33 40/40/32
f 45/45/44 44/44/45 1/69/12
f 34/34/39 29/29/36 41/41/46
f 43/70/14 34/34/39 42/42/47
f 42/42/47 41/41/46 44/44/45
f 43/71/14 42/42/47 45/45/44
f 4/72/11 43/73/14 45/45/44
f 49/74/1 47/47/48 40/40/32
f 29/29/36 37/37/43 46/46/49
f 37/37/43 40/40/32 47/47/48
f 44/44/45 48/48/50 9/75/18
f 41/41/46 46/46/49 48/48/50
f 49/76/1 50/50/3 47/47/48
f 46/46/49 47/47/48 50/50/3
f 48/48/50 50/50/3 11/11/2
f 2/2/9 8/8/16 7/7/10
f 3/3/13 5/5/15 4/4/11
f 6/6/8 7/7/10 5/5/15
f 10/10/19 3/3/13 1/1/12
f 12/12/17 10/10/19 9/9/18
f 13/13/21 2/2/9 6/6/8
f 14/14/20 6/6/8 3/3/13
f 15/15/7 14/14/20 10/10/19
f 16/16/6 13/13/21 14/14/20
f 17/17/24 22/22/27 21/21/22
f 18/18/25 19/19/26 8/8/16
f 20/20/23 21/21/22 19/19/26
f 23/23/29 18/18/25 2/2/9
f 24/24/28 23/23/29 13/13/21
f 25/25/31 17/17/24 20/20/23
f 26/26/30 20/20/23 18/18/25
f 27/27/5 26/26/30 23/23/29
f 28/28/4 25/25/31 26/26/30
f 29/29/36 34/34/39 33/33/34
f 30/30/37 31/31/38 22/22/27
f 32/32/35 33/33/34 31/31/38
f 35/35/41 30/30/37 17/17/24
f 36/36/40 35/35/41 25/25/31
f 37/37/43 29/29/36 32/32/35
f 38/38/42 32/32/35 30/30/37
f 39/39/33 38/38/42 35/35/41
f 40/40/32 37/37/43 38/38/42
f 1/69/12 4/72/11 45/45/44
f 41/41/46 42/42/47 34/34/39
f 44/44/45 45/45/44 42/42/47
f 46/46/49 41/41/46 29/29/36
f 47/47/48 46/46/49 37/37/43
f 9/75/18 1/69/12 44/44/45
f 48/48/50 44/44/45 41/41/46
f 50/50/3 48/48/50 46/46/49
f 11/11/2 9/75/18 48/48/50
